# xmcd CD database file
#
# Track frame offsets:
#	150
#	11105
#	31485
#	40620
#	56847
#	75592
#	90382
#	107367
#	123962
#	137890
#	153877
#	167790
#	183165
#	197780
#
# Disc length: 2845 seconds
#
# Revision: 0
# Processed by: cddbd v1.4PL0 Copyright (c) Steve Scherf et al.
# Submitted via: CDex 1.50Beta7
#
DISCID=a90b1b0e
DTITLE=Pete Fountain and the New Lawrence Welk Orchestra - Big Band Blues
DYEAR=2001
DGENRE=Blues
TTITLE0=Avalon
TTITLE1=Tin Roof Blues
TTITLE2=Do You Know What It Means To Miss New Orleans
TTITLE3=It Had To Be You
TTITLE4=My Blue Heaven
TTITLE5=Georgia On My Mind
TTITLE6=Basin Street Blues
TTITLE7=Marie
TTITLE8=Just A Closer Walk With Thee
TTITLE9=Home
TTITLE10=Shine
TTITLE11=You Brought A New Kind Of Love
TTITLE12=Up A Lazy River
TTITLE13=Summer Wind
EXTD=YEAR: 2001
EXTT0=
EXTT1=
EXTT2=
EXTT3=
EXTT4=
EXTT5=
EXTT6=
EXTT7=
EXTT8=
EXTT9=
EXTT10=
EXTT11=
EXTT12=
EXTT13=
PLAYORDER=
